<?xml version="1.0" encoding="UTF-8"?>
<svg width="1040px" height="436px" viewBox="0 0 1040 436" version="1.1" xmlns="http://www.w3.org/2000/svg" xmlns:xlink="http://www.w3.org/1999/xlink">
    <!-- Generator: Sketch 53.2 (72643) - https://sketchapp.com -->
    <title>fond-illu</title>
    <desc>Created with Sketch.</desc>
    <g id="Site-Yuka" stroke="none" stroke-width="1" fill="none" fill-rule="evenodd">
        <g id="1.0-Accueil-web" transform="translate(-359.000000, -429.000000)" fill="#EBF7FA">
            <g id="Bons-choix" transform="translate(156.000000, 160.000000)">
                <path d="M1045.60481,269 C1040.63591,269.00757 1035.83039,269.141565 1031.26769,269.429994 C991.138285,271.963023 950.416605,284.092944 920.22046,310.664006 C903.012743,325.806157 889.550799,345.270961 870.418002,357.889925 C844.550072,374.951909 811.813124,377.257071 780.846948,376.336521 C743.881632,375.238067 707.032805,370.287079 671.086383,361.58954 C614.042749,347.788849 551.802535,325.039284 499.463055,351.605804 C473.978628,364.54045 454.576546,387.938034 428.136766,398.781002 C403.361858,408.939612 376.07716,406.779043 348.800783,404.618474 C321.337571,402.442765 293.884193,400.267812 269.010951,410.665645 C242.372989,421.802341 203.051436,460.313309 203,491.541631 L203,491.678653 C203.022692,502.681355 207.791142,513.593969 215.847733,521.081014 C243.74891,547.008599 309.644886,534.057298 343.790281,531.41677 C389.9748,527.845094 438.399068,523.897173 482.245504,542.144669 C507.323735,552.581867 529.231068,569.69533 554.473441,579.728273 C592.982602,595.036215 634.901689,592.550879 676.943315,590.065543 C715.626452,587.780064 754.413975,585.493071 790.743144,597.066574 C845.948686,614.653939 887.076561,661.623224 940.276086,684.582486 C966.668212,695.972031 995.358332,701.128175 1023.99021,703.637736 C1063.56365,707.105699 1105.65671,705.071554 1139.47155,684.210027 C1165.55506,668.118557 1184.20224,642.291658 1198.77082,615.31407 C1227.86789,561.433841 1242.96369,500.182392 1243,438.958197 L1243,438.517604 C1242.98563,412.90116 1240.33439,387.300613 1234.96913,362.243615 C1231.03879,343.892406 1225.29153,325.08622 1212.39615,311.457375 C1194.90704,292.975199 1171.94148,282.675781 1151.21643,279.45461 C1132.99133,276.622554 1085.08143,269.059048 1046.50116,269 L1045.60481,269 Z" id="fond-illu"></path>
            </g>
        </g>
    </g>
</svg>