<?xml version="1.0" encoding="UTF-8"?>
<svg width="312px" height="237px" viewBox="0 0 312 237" version="1.1" xmlns="http://www.w3.org/2000/svg" xmlns:xlink="http://www.w3.org/1999/xlink">
    <!-- Generator: Sketch 60.1 (88133) - https://sketch.com -->
    <title>objets</title>
    <desc>Created with Sketch.</desc>
    <g id="Yuka---Site-Mobile" stroke="none" stroke-width="1" fill="none" fill-rule="evenodd">
        <g id="1.0-Accueil-mob" transform="translate(-7.000000, -383.000000)">
            <g id="Bons-choix" transform="translate(9.000000, 83.000000)">
                <g id="illu-bons-choix" transform="translate(0.000000, 240.000000)">
                    <g id="objets" transform="translate(0.231214, 13.253179)">
                        <ellipse id="Oval" fill="#D8E7EA" fill-rule="nonzero" cx="39.449711" cy="279.343353" rx="24.8046243" ry="3.93988439"></ellipse>
                        <circle id="Oval" fill="#302C2E" fill-rule="nonzero" cx="47.7687861" cy="225.169942" r="3.59768786"></circle>
                        <line x1="47.3988439" y1="225.974566" x2="40.9433526" y2="213.521387" id="Path" stroke="#545454" stroke-width="3.67816092" stroke-linecap="round" stroke-linejoin="round"></line>
                        <g id="Group-2" transform="translate(248.786046, 69.812630)" fill-rule="nonzero">
                            <path d="M17.3873646,10.0208955 C16.3072183,8.2710477 14.5605423,7.03701945 12.5503704,6.60355447 L11.1630871,6.30297644 C9.89954873,6.02959124 8.80606871,5.24422809 8.14343394,4.13419031 C7.8869782,3.70993615 7.876401,3.1810761 8.11568827,2.74690707 L8.14805822,2.68679147 C8.32760576,2.35671246 8.31523262,1.95546943 8.11568827,1.63708048 L7.4127981,0.494883952 C7.10515126,0.0036224613 6.45863311,-0.147162922 5.96539926,0.157311698 L4.85094839,0.846329039 L1.61395417,2.83014407 L0.499503303,3.52378569 C0.262087099,3.66910261 0.0924528149,3.90312914 0.0282140136,4.17397382 C-0.0360247878,4.44481849 0.0104404258,4.73009939 0.157306771,4.96656025 L0.864821222,6.10875678 C1.06133944,6.42838343 1.41472653,6.61744553 1.78967671,6.60355447 L1.8544166,6.60355447 C2.34567904,6.58493451 2.81010639,6.82770336 3.07522585,7.24170476 C3.77478798,8.328295 3.9877489,9.65804315 3.66250908,10.9087568 L3.30643972,12.29604 C2.7938841,14.2875775 3.1162298,16.4020317 4.19892527,18.1503753 L17.6786941,39.9445949 C18.1014129,40.6277823 18.8230483,41.0700521 19.6236763,41.1366191 C20.4243042,41.2031861 21.2090698,40.8861638 21.7388097,40.2821672 L22.6636652,39.2232077 C22.99782,38.8444274 23.4373695,38.5739354 23.9260929,38.446329 L24.6012374,38.3260978 C24.9572374,38.3260671 25.3056656,38.2233048 25.6047056,38.0301441 C25.9104061,37.8494413 26.1576286,37.5845601 26.3168443,37.2671383 L26.728405,36.712225 C27.0602124,36.3329111 27.49848,36.0622165 27.9862085,35.9353464 L29.3734917,35.5746527 C30.1516168,35.3723044 30.787202,34.8120853 31.0856445,34.0655228 C31.3840869,33.3189604 31.3098377,32.474981 30.8856305,31.7919938 L17.3873646,10.0208955 Z" id="Path" fill="#D9F0F4"></path>
                            <path d="M8.14330441,24.7492192 C8.10643972,24.6891036 16.0047056,17.979277 18.1411218,11.1214735 L24.2960351,21.179277 C24.2960351,21.179277 19.8752258,29.9237857 13.7156883,33.6047105 L8.14330441,24.7492192 Z" id="Path" fill="#FFFFFF"></path>
                            <path d="M9.44748018,5.59083771 C8.63794018,6.51403332 7.6798595,7.29550206 6.6127981,7.90297644 C5.59055167,8.4242982 4.53190854,8.87093742 3.44516804,9.23939262 L2.26135301,7.27869898 C3.34748119,7.00970846 4.38607907,6.57617961 5.3411218,5.99314985 C6.41593321,5.34609966 7.398912,4.55753914 8.26366515,3.64864118 L9.44748018,5.59083771 Z" id="Path" fill="#FFFFFF"></path>
                        </g>
                        <g id="Group-4" transform="translate(280.212717, 46.853179)">
                            <polygon id="Path" fill="#D9F0F4" fill-rule="nonzero" points="23.6531792 34.9780347 22.816185 30.7653179 24.7121387 20.4208092 26.6034682 10.0763006 28.883237 6.43236994 29.2947977 4.16647399 6.53410405 -1.56319402e-13 6.11791908 2.26589595 6.90867052 6.5433526 5.0265896 16.8138728 3.14450867 27.0843931 0.887861272 30.8069364 0.476300578 33.0728324 23.2416185 37.2439306"></polygon>
                            <line x1="5.2300578" y1="2.14104046" x2="29.3040462" y2="6.55260116" id="Path" stroke="#FFFFFF" stroke-width="0.61302682"></line>
                            <line x1="5.6416185" y1="7.37572254" x2="9.60462428" y2="5.60462428" id="Path" stroke="#FFFFFF" stroke-width="0.61302682"></line>
                            <line x1="23.8843931" y1="8.64739884" x2="27.5468208" y2="10.982659" id="Path" stroke="#FFFFFF" stroke-width="0.61302682"></line>
                            <line x1="1.94682081" y1="26.0531792" x2="5.54450867" y2="28.4901734" id="Path" stroke="#FFFFFF" stroke-width="0.61302682"></line>
                            <line x1="19.7225434" y1="31.2369942" x2="23.9537572" y2="30.265896" id="Path" stroke="#FFFFFF" stroke-width="0.61302682"></line>
                            <line x1="-1.42108547e-14" y1="30.7236994" x2="24.0693642" y2="35.1306358" id="Path" stroke="#FFFFFF" stroke-width="0.61302682"></line>
                            <path d="M11.8176164,14.1905397 L18.3675954,14.1905397 C19.4205336,14.1905397 20.2741088,15.0441149 20.2741088,16.0970532 L20.2741088,21.8377836 C20.2741088,22.8907218 19.4205336,23.744297 18.3675954,23.744297 L11.8176164,23.744297 C10.7646781,23.744297 9.91110299,22.8907218 9.91110299,21.8377836 L9.91110299,16.0970532 C9.91110299,15.0441149 10.7646781,14.1905397 11.8176164,14.1905397 Z" id="Rectangle" fill="#FFFFFF" fill-rule="nonzero" transform="translate(15.092606, 18.967418) rotate(100.380000) translate(-15.092606, -18.967418) "></path>
                        </g>
                        <path d="M65.6601156,199.560694 C65.8274104,199.432168 65.9822359,199.28818 66.1225434,199.130636 L67.0150289,198.145665 C67.8847362,197.179144 68.3237895,195.900381 68.2312139,194.603468 L68.166474,193.678613 C68.1068989,192.863623 68.3901673,192.060749 68.9479769,191.463584 C69.1595957,191.23841 69.4735047,191.140204 69.7757225,191.204624 L69.817341,191.204624 C70.0496956,191.254733 70.291142,191.177189 70.4508671,191.001156 L71.0196532,190.372254 C71.2550021,190.100737 71.2324922,189.691468 70.9687861,189.447399 L70.3537572,188.892486 L68.582659,187.292486 L67.9630058,186.737572 C67.6935736,186.498539 67.282395,186.519098 67.0381503,186.783815 L66.4554913,187.440462 C66.2950688,187.616893 66.2420611,187.866029 66.316763,188.092486 L66.316763,188.134104 C66.4142717,188.42876 66.3472987,188.75305 66.1410405,188.984971 C65.6039822,189.600866 64.8352129,189.965989 64.0184971,189.993064 L63.0936416,190.020809 C61.7945956,190.061818 60.5685985,190.631389 59.699422,191.597688 L58.8115607,192.582659 C58.6706855,192.737627 58.5437941,192.904752 58.4323699,193.082081 L57.0450867,195.324855 C56.5652179,196.08786 55.9656388,196.768632 55.2693642,197.34104 L52.7768786,199.384971 C52.5631567,199.561619 52.3622649,199.753239 52.1757225,199.958382 L48.8786127,203.625434 C48.5374891,204.002512 48.3959097,204.519286 48.4972102,205.017575 C48.5985108,205.515864 48.930629,205.936336 49.3919075,206.150289 L50.2011561,206.52948 C50.4899071,206.665259 50.731466,206.884272 50.8947977,207.158382 L51.0890173,207.546821 C51.1502608,207.764219 51.2740881,207.958805 51.4450867,208.106358 C51.6083739,208.259348 51.8122549,208.362091 52.0323699,208.402312 L52.4439306,208.550289 C52.730844,208.688809 52.971692,208.907178 53.1375723,209.179191 L53.6,209.942197 C53.8616615,210.378049 54.3143784,210.664128 54.8203531,210.713358 C55.3263279,210.762588 55.8257011,210.569145 56.166474,210.191908 L59.4774566,206.520231 C59.6636403,206.313111 59.8336941,206.092041 59.9861272,205.85896 L61.7618497,203.172254 C62.2582386,202.419746 62.8735744,201.752872 63.583815,201.197688 L65.6601156,199.560694 Z" id="Path" fill="#D9F0F4" fill-rule="nonzero"></path>
                        <ellipse id="Oval" fill="#FFFFFF" fill-rule="nonzero" transform="translate(113.172960, 158.579946) rotate(-44.380000) translate(-113.172960, -158.579946) " cx="113.17296" cy="158.579946" rx="1.84971098" ry="1.40578035"></ellipse>
                        <ellipse id="Oval" fill="#FFFFFF" fill-rule="nonzero" transform="translate(112.820188, 158.211818) rotate(-44.380000) translate(-112.820188, -158.211818) " cx="112.820188" cy="158.211818" rx="1.84971098" ry="1.40578035"></ellipse>
                        <path d="M120.707514,169.868208 C121.246616,170.736436 120.996418,171.876056 120.143196,172.438605 C119.289974,173.001155 118.143963,172.782091 117.558382,171.944509 C116.984971,171.075145 117.220809,168.004624 117.220809,168.004624 C117.220809,168.004624 120.134104,169.003468 120.707514,169.868208 Z" id="Path" fill="#FFFFFF" fill-rule="nonzero"></path>
                        <polygon id="Path" stroke="#C1CFD1" stroke-width="4.29118774" stroke-linecap="round" stroke-linejoin="round" points="-3.55271368e-15 240.263584 14.9179191 268.166474 53.900578 264.749133 61.0728324 234.247399"></polygon>
                        <polyline id="Path" stroke="#C1CFD1" stroke-width="4.29118774" stroke-linecap="round" stroke-linejoin="round" points="0 240.263584 23.9028902 228.101734 77.1098266 222.94104 61.0728324 234.247399"></polyline>
                        <polyline id="Path" stroke="#C1CFD1" stroke-width="4.29118774" stroke-linecap="round" stroke-linejoin="round" points="53.900578 264.749133 67.3572254 253.197688 77.1098266 222.94104"></polyline>
                        <line x1="9.07283237" y1="255.875145" x2="22.0115607" y2="238.672832" id="Path" stroke="#C1CFD1" stroke-width="2.45210728" stroke-linecap="round" stroke-linejoin="round"></line>
                        <line x1="30.233526" y1="247.024277" x2="37.7387283" y2="239.126012" id="Path" stroke="#C1CFD1" stroke-width="2.45210728" stroke-linecap="round" stroke-linejoin="round"></line>
                        <line x1="12.9202312" y1="264.587283" x2="33.3179191" y2="236.980347" id="Path" stroke="#C1CFD1" stroke-width="2.45210728" stroke-linecap="round" stroke-linejoin="round"></line>
                        <line x1="22.7976879" y1="267.477457" x2="44.4947977" y2="235.879769" id="Path" stroke="#C1CFD1" stroke-width="2.45210728" stroke-linecap="round" stroke-linejoin="round"></line>
                        <line x1="44.8184971" y1="264.772254" x2="27.6115607" y2="238.307514" id="Path" stroke="#C1CFD1" stroke-width="2.45210728" stroke-linecap="round" stroke-linejoin="round"></line>
                        <line x1="33.3179191" y1="236.980347" x2="27.9815029" y2="228.76763" id="Path" stroke="#C1CFD1" stroke-width="2.45210728" stroke-linecap="round" stroke-linejoin="round"></line>
                        <line x1="21.8404624" y1="238.261272" x2="17.3040462" y2="231.283237" id="Path" stroke="#C1CFD1" stroke-width="2.45210728" stroke-linecap="round" stroke-linejoin="round"></line>
                        <line x1="42.1179191" y1="235.754913" x2="36.7815029" y2="227.546821" id="Path" stroke="#C1CFD1" stroke-width="2.45210728" stroke-linecap="round" stroke-linejoin="round"></line>
                        <line x1="36.9294798" y1="235.708671" x2="41.9236994" y2="227.283237" id="Path" stroke="#C1CFD1" stroke-width="2.45210728" stroke-linecap="round" stroke-linejoin="round"></line>
                        <line x1="46.2520231" y1="234.598844" x2="51.2462428" y2="226.17341" id="Path" stroke="#C1CFD1" stroke-width="2.45210728" stroke-linecap="round" stroke-linejoin="round"></line>
                        <line x1="53.5815029" y1="234.751445" x2="58.5757225" y2="226.326012" id="Path" stroke="#C1CFD1" stroke-width="2.45210728" stroke-linecap="round" stroke-linejoin="round"></line>
                        <line x1="30.6404624" y1="236.171098" x2="35.6346821" y2="227.745665" id="Path" stroke="#C1CFD1" stroke-width="2.45210728" stroke-linecap="round" stroke-linejoin="round"></line>
                        <line x1="61.900578" y1="233.946821" x2="66.8947977" y2="225.521387" id="Path" stroke="#C1CFD1" stroke-width="2.45210728" stroke-linecap="round" stroke-linejoin="round"></line>
                        <line x1="51.1028902" y1="234.700578" x2="45.7618497" y2="226.492486" id="Path" stroke="#C1CFD1" stroke-width="2.45210728" stroke-linecap="round" stroke-linejoin="round"></line>
                        <line x1="59.1075145" y1="233.969942" x2="53.766474" y2="225.757225" id="Path" stroke="#C1CFD1" stroke-width="2.45210728" stroke-linecap="round" stroke-linejoin="round"></line>
                        <line x1="66.2520231" y1="230.59422" x2="62.2150289" y2="224.388439" id="Path" stroke="#C1CFD1" stroke-width="2.45210728" stroke-linecap="round" stroke-linejoin="round"></line>
                        <line x1="54.3352601" y1="260.943353" x2="38.5202312" y2="236.619653" id="Path" stroke="#C1CFD1" stroke-width="2.45210728" stroke-linecap="round" stroke-linejoin="round"></line>
                        <line x1="57.8312139" y1="248.018497" x2="49.5075145" y2="235.213873" id="Path" stroke="#C1CFD1" stroke-width="2.45210728" stroke-linecap="round" stroke-linejoin="round"></line>
                        <line x1="35.366474" y1="265.951445" x2="17.5398844" y2="238.534104" id="Path" stroke="#C1CFD1" stroke-width="3.67816092" stroke-linecap="round" stroke-linejoin="round"></line>
                        <line x1="24.3930636" y1="267.357225" x2="6.56647399" y2="239.939884" id="Path" stroke="#C1CFD1" stroke-width="2.45210728" stroke-linecap="round" stroke-linejoin="round"></line>
                        <line x1="33.6786127" y1="266.524855" x2="55.4358382" y2="234.802312" id="Path" stroke="#C1CFD1" stroke-width="2.45210728" stroke-linecap="round" stroke-linejoin="round"></line>
                        <line x1="67.3572254" y1="253.197688" x2="59.8843931" y2="242.867052" id="Path" stroke="#C1CFD1" stroke-width="2.45210728" stroke-linecap="round" stroke-linejoin="round"></line>
                        <line x1="70.0393064" y1="245.068208" x2="62.566474" y2="234.742197" id="Path" stroke="#C1CFD1" stroke-width="2.45210728" stroke-linecap="round" stroke-linejoin="round"></line>
                        <line x1="72.8508671" y1="236.152601" x2="68.0786127" y2="229.558382" id="Path" stroke="#C1CFD1" stroke-width="2.45210728" stroke-linecap="round" stroke-linejoin="round"></line>
                        <line x1="62.2473988" y1="257.886705" x2="57.4751445" y2="251.287861" id="Path" stroke="#C1CFD1" stroke-width="2.45210728" stroke-linecap="round" stroke-linejoin="round"></line>
                        <line x1="61.5630058" y1="256.938728" x2="65.9236994" y2="231.583815" id="Path" stroke="#C1CFD1" stroke-width="2.45210728" stroke-linecap="round" stroke-linejoin="round"></line>
                        <line x1="66.2289017" y1="253.37341" x2="70.5942197" y2="228.018497" id="Path" stroke="#C1CFD1" stroke-width="2.45210728" stroke-linecap="round" stroke-linejoin="round"></line>
                        <line x1="44.8184971" y1="264.772254" x2="57.8034682" y2="245.835838" id="Path" stroke="#C1CFD1" stroke-width="2.45210728" stroke-linecap="round" stroke-linejoin="round"></line>
                        <circle id="Oval" fill="#302C2E" fill-rule="nonzero" cx="26.9410405" cy="238.423121" r="3.59768786"></circle>
                        <path d="M44.0924855,219.639306 L37.3225434,206.330636 C35.8956098,203.541237 32.537377,202.353471 29.6739884,203.625434 L19.1260116,208.295954 C17.6647573,208.94181 16.528156,210.153015 15.9763748,211.652326 C15.4245937,213.151636 15.5048756,214.810683 16.1988439,216.249711 L26.8901734,238.446243" id="Path" stroke="#545454" stroke-width="3.67816092" stroke-linecap="round" stroke-linejoin="round"></path>
                        <circle id="Oval" fill="#727272" fill-rule="nonzero" cx="26.4508671" cy="238.534104" r="1.11907514"></circle>
                        <polyline id="Path" stroke="#FFFFFF" stroke-width="0.5" points="112.60578 127.514451 116.485549 125.590751 119.056647 127.96763"></polyline>
                        <path d="M63.1548961,193.311023 L63.7353404,193.311023 C64.4395563,193.311023 65.0104361,193.881903 65.0104361,194.586119 L65.0104361,195.342286 C65.0104361,196.046502 64.4395563,196.617381 63.7353404,196.617381 L63.1548961,196.617381 C62.4506801,196.617381 61.8798003,196.046502 61.8798003,195.342286 L61.8798003,194.586119 C61.8798003,193.881903 62.4506801,193.311023 63.1548961,193.311023 Z" id="Rectangle" fill="#FFFFFF" fill-rule="nonzero" transform="translate(63.445118, 194.964202) rotate(131.900000) translate(-63.445118, -194.964202) "></path>
                        <path d="M57.706344,196.028966 L60.6442662,196.028966 C61.0844012,196.028966 61.4412011,196.385765 61.4412011,196.8259 L61.4412011,201.95573 C61.4412011,202.395865 61.0844012,202.752665 60.6442662,202.752665 L57.706344,202.752665 C57.2662091,202.752665 56.9094092,202.395865 56.9094092,201.95573 L56.9094092,196.8259 C56.9094092,196.385765 57.2662091,196.028966 57.706344,196.028966 Z" id="Rectangle" fill="#FFFFFF" fill-rule="nonzero" transform="translate(59.175305, 199.390815) rotate(131.900000) translate(-59.175305, -199.390815) "></path>
                        <polygon id="Path" fill="#D9F0F4" fill-rule="nonzero" points="81.9745665 163.2 72.665896 166.376879 60.5040462 140.846243 60.0647399 139.482081 75.9398844 134.062428 76.3976879 135.42659"></polygon>
                        <path d="M81.5352601,168.83237 L76.4485549,170.566474 C75.2815487,170.965283 74.0118319,170.3449 73.6092486,169.179191 L72.6566474,166.381503 L81.9653179,163.204624 L82.9179191,166.002312 C83.1106723,166.560925 83.0732135,167.17328 82.8138095,167.704234 C82.5544055,168.235188 82.0943809,168.641094 81.5352601,168.83237 L81.5352601,168.83237 Z" id="Path" fill="#CEE7EA" fill-rule="nonzero"></path>
                        <path d="M83.1953757,166.071676 L79.7317919,167.255491 C79.6386302,167.286803 79.556655,167.344668 79.4959538,167.421965 C79.2422535,167.73807 78.9013988,167.972809 78.5156069,168.09711 C78.1202483,168.23534 77.6939419,168.25938 77.2855491,168.166474 C77.1963677,168.141151 77.1018982,168.141151 77.0127168,168.166474 L73.5583815,169.34104" id="Path" stroke="#FFFFFF" stroke-width="0.91954023"></path>
                        <line x1="59.8196532" y1="141.276301" x2="77.2300578" y2="135.403468" id="Path" stroke="#FFFFFF" stroke-width="0.61302682"></line>
                        <line x1="59.8196532" y1="141.276301" x2="77.2300578" y2="135.403468" id="Path" stroke="#FFFFFF" stroke-width="0.61302682"></line>
                        <path d="M71.0282026,148.25628 L75.323678,148.25628 C75.9635665,148.25628 76.4822987,148.775012 76.4822987,149.4149 L76.4822987,153.710376 C76.4822987,154.350264 75.9635665,154.868996 75.323678,154.868996 L71.0282026,154.868996 C70.388314,154.868996 69.8695819,154.350264 69.8695819,153.710376 L69.8695819,149.4149 C69.8695819,148.775012 70.388314,148.25628 71.0282026,148.25628 Z" id="Rectangle" fill="#FFFFFF" fill-rule="nonzero" transform="translate(73.175940, 151.562638) rotate(-62.890000) translate(-73.175940, -151.562638) "></path>
                    </g>
                </g>
            </g>
        </g>
    </g>
</svg>