<?xml version="1.0" encoding="UTF-8"?>
<svg width="753px" height="564px" viewBox="0 0 753 564" version="1.1" xmlns="http://www.w3.org/2000/svg" xmlns:xlink="http://www.w3.org/1999/xlink">
    <!-- Generator: Sketch 63.1 (92452) - https://sketch.com -->
    <title>objets_desktop</title>
    <desc>Created with Sketch.</desc>
    <g id="Page-1" stroke="none" stroke-width="1" fill="none" fill-rule="evenodd">
        <g id="objets_desktop" transform="translate(4.377168, 0.002159)">
            <ellipse id="Oval" fill="#D8E7EA" fill-rule="nonzero" cx="64.352341" cy="557.295933" rx="40.4625434" ry="6.42693642"></ellipse>
            <polygon id="Path" fill="#C3DEE0" fill-rule="nonzero" points="163.26078 298.860673 184.638642 307.188534 194.173439 308.335124 211.59104 263.66339 206.378584 264.938216 204.462572 260.887436 199.453786 262.42628 198.080896 258.39813 194.475173 260.118014 192.657225 256.285991 189.307977 258.284979 187.716329 254.354893 184.359538 256.353881 181.545867 251.956107"></polygon>
            <polygon id="Path" fill="#CEE7EA" fill-rule="nonzero" points="183.929566 308.998939 193.471908 310.145529 210.889509 265.473795 207.47237 267.450153 206.650145 263.8218 203.919451 266.069719 202.214653 262.094373"></polygon>
            <polygon id="Path" fill="#CEE7EA" fill-rule="nonzero" points="153.884393 297.284112 163.426734 298.430702 181.545867 251.956107 177.864711 254.61891 176.868988 251.156511 174.206185 253.525124 172.177023 250.379546"></polygon>
            <circle id="Oval" fill="#302C2E" fill-rule="nonzero" cx="77.9228324" cy="468.925558" r="5.86872832"></circle>
            <line x1="77.3193642" y1="470.238101" x2="66.7888439" y2="449.923852" id="Path" stroke="#545454" stroke-width="6" stroke-linecap="round" stroke-linejoin="round"></line>
            <path d="M575.970376,151.845529 C574.208387,148.991089 571.359122,146.978081 568.080029,146.270991 L565.817023,145.780673 C563.755876,145.334714 561.972137,144.05359 560.891214,142.242841 C560.47287,141.550776 560.455616,140.688073 560.845954,139.979835 L560.898757,139.881771 C561.191644,139.34333 561.17146,138.688802 560.845954,138.16943 L559.699364,136.306222 C559.197515,135.504852 558.142883,135.258883 557.338295,135.755558 L555.520347,136.879517 L550.24,140.115615 L548.422052,141.247118 C548.034767,141.484166 547.758051,141.865922 547.653261,142.307738 C547.548472,142.749553 547.624268,143.214917 547.863844,143.600644 L549.017977,145.463852 C549.338547,145.985243 549.91501,146.293651 550.526647,146.270991 L550.632254,146.270991 C551.433626,146.240617 552.191223,146.636634 552.623699,147.311974 C553.76486,149.084474 554.112253,151.253626 553.581705,153.293852 L553.000867,155.556858 C552.164761,158.805554 552.690587,162.254757 554.456734,165.106742 L576.445607,200.658563 C577.135167,201.773013 578.312335,202.494465 579.618359,202.603053 C580.924383,202.71164 582.204532,202.194498 583.068671,201.209228 L584.577341,199.4818 C585.122431,198.863915 585.839446,198.422675 586.636676,198.214517 L587.738006,198.01839 C588.318731,198.01834 588.887104,197.850709 589.374913,197.535615 C589.873587,197.240844 590.276869,196.808756 590.53659,196.290962 L591.207948,195.38576 C591.749209,194.767004 592.464133,194.325433 593.25974,194.118477 L595.522746,193.530095 C596.792062,193.200014 597.828861,192.286157 598.315695,191.068327 C598.802529,189.850497 598.68141,188.473756 597.989422,187.359633 L575.970376,151.845529 Z" id="Path" fill="#D9F0F4" fill-rule="nonzero"></path>
            <path d="M107.108064,427.150471 C107.380963,426.940813 107.633522,426.705933 107.862399,426.448939 L109.318266,424.842205 C110.736976,423.265568 111.453182,421.179586 111.302168,419.063997 L111.196561,417.555326 C111.099379,416.225874 111.56146,414.916187 112.471387,413.94206 C112.816591,413.574746 113.328654,413.414548 113.821647,413.519633 L113.889538,413.519633 C114.268566,413.601373 114.662425,413.474878 114.922977,413.187725 L115.850809,412.161829 C116.234722,411.718917 116.198003,411.051296 115.767832,410.653159 L114.764566,409.747956 L111.875462,407.137956 L110.864653,406.232754 C110.425142,405.842831 109.754407,405.876368 109.355983,406.308188 L108.40552,407.379344 C108.143831,407.667145 108.057362,408.073549 108.17922,408.442956 L108.17922,408.510847 C108.338281,408.991504 108.229031,409.520502 107.892572,409.898823 C107.016496,410.903501 105.762441,411.499109 104.430173,411.543274 L102.921503,411.588534 C100.802434,411.65543 98.8025264,412.584542 97.3846821,414.160818 L95.9363584,415.767552 C95.7065557,416.020343 95.4995641,416.292966 95.3178035,416.582234 L93.0547977,420.24076 C92.2720117,421.485411 91.2939483,422.59592 90.1581503,423.529662 L86.0922832,426.863823 C85.7436494,427.15198 85.4159446,427.46456 85.1116474,427.799199 L79.733237,433.781078 C79.1767792,434.396188 78.9458277,435.239174 79.1110742,436.052008 C79.2763207,436.864842 79.8180886,437.550737 80.5705491,437.899748 L81.8906358,438.518303 C82.361661,438.739793 82.7557039,439.097058 83.0221387,439.544199 L83.3389595,440.177841 C83.4388629,440.532471 83.6408563,440.849889 83.9197977,441.090586 C84.1861599,441.34015 84.5187408,441.50775 84.8778035,441.573361 L85.5491618,441.814748 C86.0171893,442.040709 86.4100725,442.396924 86.6806647,442.840644 L87.435,444.085297 C87.8618353,444.796282 88.6003297,445.262949 89.4257011,445.343255 C90.2510724,445.423562 91.0656749,445.108007 91.6215607,444.492638 L97.0226012,438.503216 C97.3263133,438.165352 97.6037135,437.804732 97.8523699,437.424517 L100.749017,433.041829 C101.558752,431.8143 102.562518,430.726461 103.721098,429.820818 L107.108064,427.150471 Z" id="Path" fill="#D9F0F4" fill-rule="nonzero"></path>
            <path d="M681.969566,128.732696 C681.969566,128.732696 676.176272,140.46261 677.99422,145.7505 C679.435,149.95969 687.710058,174.498216 687.710058,174.498216 C687.710058,174.498216 689.150838,182.132089 700.910925,179.650326 C712.671012,177.168563 733.128584,171.352638 740.400376,166.298592 C747.672168,161.244546 750.636705,161.131396 743.832601,141.005731 C741.207514,133.228534 738.408931,127.789777 735.70841,124.018101 C731.423786,118.028679 729.236214,118.813188 724.747919,115.954257 C724.280231,115.660066 722.748931,111.428245 722.009682,109.34628 C721.927678,109.115435 721.726445,108.947584 721.484633,108.908329 C721.242821,108.869073 720.998824,108.964647 720.848006,109.157696 L717.551561,113.246193 L714.111792,111.247205 C713.802224,111.063574 713.40292,111.156745 713.20659,111.458419 L710.392919,115.675153 L706.900347,113.457407 C706.746354,113.358395 706.558605,113.326565 706.380583,113.36929 C706.202561,113.412016 706.049709,113.525589 705.957428,113.683708 L704.018786,116.867003 L700.820405,114.898188 C700.526158,114.711167 700.137373,114.783652 699.930289,115.064141 L697.667283,118.081482 C697.459095,118.353857 697.08051,118.428279 696.784711,118.254979 L693.691936,116.429488 C693.364742,116.241118 692.946844,116.352333 692.756561,116.678419 L690.900896,119.85417 C690.713789,120.174807 690.303834,120.285697 689.980607,120.103101 L687.370607,118.59443 C687.201544,118.499958 687.000182,118.482187 686.817186,118.545587 C686.63419,118.608987 686.486982,118.747523 686.412601,118.926338 L685.288642,121.641945 C685.220392,121.809467 685.087428,121.942359 684.919869,122.010519 C684.75231,122.078678 684.564336,122.076337 684.398526,122.004026 L681.615029,120.827263 C681.383603,120.727279 681.115831,120.763765 680.919592,120.922022 C680.723354,121.080279 680.630967,121.334243 680.679653,121.581598 L681.969566,128.732696 Z" id="Path" fill="#D9F0F4" fill-rule="nonzero"></path>
            <circle id="Oval" fill="#FFFFFF" fill-rule="nonzero" cx="700.413064" cy="153.052465" r="11.2546821"></circle>
            <path d="M194.58078,399.835991 L176.552168,372.506425 C176.175056,371.9406 176.016851,371.256831 176.10711,370.58287 L177.834538,357.75917 L193.630318,347.334257 L193.313497,360.670904 C193.297997,361.245774 193.458548,361.811652 193.773642,362.292725 L211.930491,389.803332 L196.225231,400.167899 C195.963304,400.342471 195.642656,400.40559 195.334106,400.343313 C195.025556,400.281037 194.754491,400.09849 194.58078,399.835991 Z" id="Path" fill="#D9F0F4" fill-rule="nonzero"></path>
            <path d="M222.906069,382.523997 L211.907861,389.780702 L193.773642,362.270095 C193.458548,361.789022 193.297997,361.223144 193.313497,360.648274 L193.630318,347.311627 L204.764306,353.421742 C205.164008,353.645877 205.505164,353.961188 205.760029,354.342032 L223.26815,380.879546 C223.439915,381.14515 223.498295,381.468427 223.430279,381.777332 C223.362263,382.086236 223.173504,382.355098 222.906069,382.523997 Z" id="Path" fill="#CEE7EA" fill-rule="nonzero"></path>
            <path d="M176.285481,349.849053 L194.14814,349.849053 C194.443931,349.849053 194.683718,350.088839 194.683718,350.384631 L194.683718,352.775874 L175.749903,352.775874 L175.749903,350.384631 C175.749903,350.088839 175.989689,349.849053 176.285481,349.849053 Z" id="Path" fill="#D9F0F4" fill-rule="nonzero" transform="translate(185.216811, 351.312463) rotate(-33.060000) translate(-185.216811, -351.312463) "></path>
            <ellipse id="Oval" fill="#FFFFFF" fill-rule="nonzero" transform="translate(184.613391, 360.300626) rotate(-44.380000) translate(-184.613391, -360.300626) " cx="184.613391" cy="360.300626" rx="3.01734104" ry="2.29317919"></ellipse>
            <ellipse id="Oval" fill="#FFFFFF" fill-rule="nonzero" transform="translate(184.037932, 359.700117) rotate(-44.380000) translate(-184.037932, -359.700117) " cx="184.037932" cy="359.700117" rx="3.01734104" ry="2.29317919"></ellipse>
            <path d="M196.904133,378.714604 C197.783542,380.1309 197.375406,381.989905 195.983589,382.907565 C194.591771,383.825224 192.722339,383.467875 191.76711,382.101569 C190.831734,380.683419 191.216445,375.674633 191.216445,375.674633 C191.216445,375.674633 195.968757,377.303997 196.904133,378.714604 Z" id="Path" fill="#FFFFFF" fill-rule="nonzero"></path>
            <polygon id="Path" stroke="#C1CFD1" stroke-width="7" stroke-linecap="round" stroke-linejoin="round" points="0 493.54706 24.3348555 539.06365 87.9253179 533.489112 99.6250578 483.733159"></polygon>
            <polyline id="Path" stroke="#C1CFD1" stroke-width="7" stroke-linecap="round" stroke-linejoin="round" points="3.55271368e-14 493.54706 38.9915896 473.708043 125.785405 465.289662 99.6250578 483.733159"></polyline>
            <polyline id="Path" stroke="#C1CFD1" stroke-width="7" stroke-linecap="round" stroke-linejoin="round" points="87.9253179 533.489112 109.876474 514.645818 125.785405 465.289662"></polyline>
            <line x1="14.8000578" y1="519.013419" x2="35.9063584" y2="490.952147" id="Path" stroke="#C1CFD1" stroke-width="4" stroke-linecap="round" stroke-linejoin="round"></line>
            <line x1="49.3184393" y1="504.575442" x2="61.5613006" y2="491.691396" id="Path" stroke="#C1CFD1" stroke-width="4" stroke-linecap="round" stroke-linejoin="round"></line>
            <line x1="21.0761272" y1="533.225095" x2="54.3498555" y2="488.19128" id="Path" stroke="#C1CFD1" stroke-width="4" stroke-linecap="round" stroke-linejoin="round"></line>
            <line x1="37.1887283" y1="537.93969" x2="72.5821387" y2="486.395962" id="Path" stroke="#C1CFD1" stroke-width="4" stroke-linecap="round" stroke-linejoin="round"></line>
            <line x1="73.1101734" y1="533.526829" x2="45.0413584" y2="490.356222" id="Path" stroke="#C1CFD1" stroke-width="4" stroke-linecap="round" stroke-linejoin="round"></line>
            <line x1="54.3498555" y1="488.19128" x2="45.6448266" y2="474.794286" id="Path" stroke="#C1CFD1" stroke-width="4" stroke-linecap="round" stroke-linejoin="round"></line>
            <line x1="35.6272543" y1="490.280789" x2="28.2272254" y2="478.89787" id="Path" stroke="#C1CFD1" stroke-width="4" stroke-linecap="round" stroke-linejoin="round"></line>
            <line x1="68.7048555" y1="486.192292" x2="59.9998266" y2="472.802841" id="Path" stroke="#C1CFD1" stroke-width="4" stroke-linecap="round" stroke-linejoin="round"></line>
            <line x1="60.2412139" y1="486.116858" x2="68.3880347" y2="472.37287" id="Path" stroke="#C1CFD1" stroke-width="4" stroke-linecap="round" stroke-linejoin="round"></line>
            <line x1="75.4486127" y1="484.306453" x2="83.5954335" y2="470.562465" id="Path" stroke="#C1CFD1" stroke-width="4" stroke-linecap="round" stroke-linejoin="round"></line>
            <line x1="87.4048266" y1="484.555384" x2="95.5516474" y2="470.811396" id="Path" stroke="#C1CFD1" stroke-width="4" stroke-linecap="round" stroke-linejoin="round"></line>
            <line x1="49.9822543" y1="486.871193" x2="58.1290751" y2="473.127205" id="Path" stroke="#C1CFD1" stroke-width="4" stroke-linecap="round" stroke-linejoin="round"></line>
            <line x1="100.975318" y1="483.242841" x2="109.122139" y2="469.498852" id="Path" stroke="#C1CFD1" stroke-width="4" stroke-linecap="round" stroke-linejoin="round"></line>
            <line x1="83.3615896" y1="484.472407" x2="74.6490173" y2="471.082956" id="Path" stroke="#C1CFD1" stroke-width="4" stroke-linecap="round" stroke-linejoin="round"></line>
            <line x1="96.4191329" y1="483.280558" x2="87.7065607" y2="469.883563" id="Path" stroke="#C1CFD1" stroke-width="4" stroke-linecap="round" stroke-linejoin="round"></line>
            <line x1="108.073613" y1="477.77391" x2="101.488266" y2="467.650731" id="Path" stroke="#C1CFD1" stroke-width="4" stroke-linecap="round" stroke-linejoin="round"></line>
            <line x1="88.6343931" y1="527.280933" x2="62.8361272" y2="487.602899" id="Path" stroke="#C1CFD1" stroke-width="4" stroke-linecap="round" stroke-linejoin="round"></line>
            <line x1="94.3371676" y1="506.197263" x2="80.7591329" y2="485.309719" id="Path" stroke="#C1CFD1" stroke-width="4" stroke-linecap="round" stroke-linejoin="round"></line>
            <line x1="57.6915607" y1="535.450384" x2="28.6119364" y2="490.725847" id="Path" stroke="#C1CFD1" stroke-width="6" stroke-linecap="round" stroke-linejoin="round"></line>
            <line x1="39.791185" y1="537.743563" x2="10.7115607" y2="493.019026" id="Path" stroke="#C1CFD1" stroke-width="4" stroke-linecap="round" stroke-linejoin="round"></line>
            <line x1="54.938237" y1="536.38576" x2="90.429711" y2="484.638361" id="Path" stroke="#C1CFD1" stroke-width="4" stroke-linecap="round" stroke-linejoin="round"></line>
            <line x1="109.876474" y1="514.645818" x2="97.6864162" y2="497.793968" id="Path" stroke="#C1CFD1" stroke-width="4" stroke-linecap="round" stroke-linejoin="round"></line>
            <line x1="114.251618" y1="501.384604" x2="102.061561" y2="484.540297" id="Path" stroke="#C1CFD1" stroke-width="4" stroke-linecap="round" stroke-linejoin="round"></line>
            <line x1="118.837977" y1="486.84102" x2="111.053237" y2="476.084199" id="Path" stroke="#C1CFD1" stroke-width="4" stroke-linecap="round" stroke-linejoin="round"></line>
            <line x1="101.541069" y1="522.294777" x2="93.7563295" y2="511.530413" id="Path" stroke="#C1CFD1" stroke-width="4" stroke-linecap="round" stroke-linejoin="round"></line>
            <line x1="100.424653" y1="520.74839" x2="107.538035" y2="479.388188" id="Path" stroke="#C1CFD1" stroke-width="4" stroke-linecap="round" stroke-linejoin="round"></line>
            <line x1="108.035896" y1="514.932465" x2="115.156821" y2="473.572263" id="Path" stroke="#C1CFD1" stroke-width="4" stroke-linecap="round" stroke-linejoin="round"></line>
            <line x1="73.1101734" y1="533.526829" x2="94.2919075" y2="502.6368" id="Path" stroke="#C1CFD1" stroke-width="4" stroke-linecap="round" stroke-linejoin="round"></line>
            <circle id="Oval" fill="#302C2E" fill-rule="nonzero" cx="43.9475723" cy="490.544806" r="5.86872832"></circle>
            <path d="M71.9258671,459.903708 L60.8823988,438.193939 C58.5547134,433.643733 53.0765963,431.706188 48.4056936,433.781078 L31.1993064,441.399864 C28.8156353,442.453417 26.9615544,444.429195 26.0614615,446.874946 C25.1613685,449.320696 25.2923283,452.027016 26.4243642,454.37443 L43.8645954,490.582523" id="Path" stroke="#545454" stroke-width="6" stroke-linecap="round" stroke-linejoin="round"></path>
            <circle id="Oval" fill="#727272" fill-rule="nonzero" cx="43.1479769" cy="490.725847" r="1.82549133"></circle>
            <polygon id="Path" fill="#D9F0F4" fill-rule="nonzero" points="153.884393 297.284112 183.929566 308.998939 202.214653 262.094373 197.002197 263.369199 195.093728 259.318419 190.084942 260.857263 188.712052 256.829112 185.098786 258.541453 183.288382 254.716974 179.93159 256.715962 178.339942 252.785875 174.98315 254.784864 172.177023 250.379546"></polygon>
            <polyline id="Path" stroke="#FFFFFF" stroke-width="0.75" points="183.688179 309.625037 190.017052 306.487003 194.211156 310.364286"></polyline>
            <line x1="206.650145" y1="263.8218" x2="190.017052" y2="306.487003" id="Path" stroke="#FFFFFF" stroke-width="0.75"></line>
            <path d="M560.890793,175.871107 C560.830867,175.773043 573.714913,164.827638 577.199942,153.640847 L587.240145,170.047638 C587.240145,170.047638 580.028699,184.312118 569.980954,190.316627 L560.890793,175.871107 Z" id="Path" fill="#FFFFFF" fill-rule="nonzero"></path>
            <path d="M563.018439,144.618997 C561.697877,146.12496 560.135008,147.399731 558.394364,148.390673 C556.726825,149.241079 554.999913,149.969659 553.227168,150.570702 L551.296069,147.372321 C553.067816,146.93353 554.762029,146.226336 556.319942,145.275269 C558.073228,144.219768 559.676712,142.933429 561.087341,141.450789 L563.018439,144.618997 Z" id="Path" fill="#FFFFFF" fill-rule="nonzero"></path>
            <path d="M103.021424,416.955695 L103.968274,416.955695 C105.117026,416.955695 106.048274,417.886942 106.048274,419.035695 L106.048274,420.269192 C106.048274,421.417944 105.117026,422.349192 103.968274,422.349192 L103.021424,422.349192 C101.872672,422.349192 100.941424,421.417944 100.941424,420.269192 L100.941424,419.035695 C100.941424,417.886942 101.872672,416.955695 103.021424,416.955695 Z" id="Rectangle" fill="#FFFFFF" fill-rule="nonzero" transform="translate(103.494849, 419.652444) rotate(131.900000) translate(-103.494849, -419.652444) "></path>
            <path d="M94.1334735,421.38934 L98.925959,421.38934 C99.6439292,421.38934 100.225959,421.97137 100.225959,422.68934 L100.225959,431.057375 C100.225959,431.775345 99.6439292,432.357375 98.925959,432.357375 L94.1334735,432.357375 C93.4155033,432.357375 92.8334735,431.775345 92.8334735,431.057375 L92.8334735,422.68934 C92.8334735,421.97137 93.4155033,421.38934 94.1334735,421.38934 Z" id="Rectangle" fill="#FFFFFF" fill-rule="nonzero" transform="translate(96.529716, 426.873358) rotate(131.900000) translate(-96.529716, -426.873358) "></path>
            <polygon id="Path" fill="#D9F0F4" fill-rule="nonzero" points="133.721012 367.837089 118.536243 373.019373 98.6972254 331.372523 97.9806069 329.147234 123.876936 320.306425 124.623728 322.531714"></polygon>
            <path d="M133.004393,377.024893 L124.706705,379.85365 C122.803026,380.504208 120.731801,379.492208 120.075087,377.590644 L118.521156,373.026916 L133.705925,367.844633 L135.259855,372.408361 C135.574284,373.319599 135.51318,374.318503 135.090027,375.184622 C134.666874,376.050741 133.916459,376.712874 133.004393,377.024893 L133.004393,377.024893 Z" id="Path" fill="#CEE7EA" fill-rule="nonzero"></path>
            <path d="M135.712457,372.521511 L130.062486,374.45261 C129.910516,374.503687 129.776794,374.598079 129.677775,374.72417 C129.263926,375.239816 128.707907,375.622735 128.078584,375.8255 C127.433655,376.050988 126.738243,376.090203 126.072052,375.93865 C125.926575,375.897342 125.772471,375.897342 125.626994,375.93865 L119.99211,377.854662" id="Path" stroke="#FFFFFF" stroke-width="1.5"></path>
            <line x1="97.5808092" y1="332.074055" x2="125.981532" y2="322.493997" id="Path" stroke="#FFFFFF"></line>
            <line x1="97.5808092" y1="332.074055" x2="125.981532" y2="322.493997" id="Path" stroke="#FFFFFF"></line>
            <path d="M115.864756,343.460145 L122.871751,343.460145 C123.915569,343.460145 124.761751,344.306327 124.761751,345.350145 L124.761751,352.35714 C124.761751,353.400958 123.915569,354.24714 122.871751,354.24714 L115.864756,354.24714 C114.820938,354.24714 113.974756,353.400958 113.974756,352.35714 L113.974756,345.350145 C113.974756,344.306327 114.820938,343.460145 115.864756,343.460145 Z" id="Rectangle" fill="#FFFFFF" fill-rule="nonzero" transform="translate(119.368253, 348.853643) rotate(-62.890000) translate(-119.368253, -348.853643) "></path>
            <polygon id="Path" fill="#D9F0F4" fill-rule="nonzero" points="637.456243 155.104257 636.090896 148.232263 639.183671 131.357783 642.268902 114.483303 645.987775 108.539141 646.659133 104.842899 609.530751 98.0463379 608.85185 101.742581 610.141763 108.720182 607.071618 125.473968 604.001474 142.227754 600.320318 148.300153 599.64896 151.996396 636.784884 158.8005"></polygon>
            <line x1="607.403526" y1="101.53891" x2="646.67422" y2="108.735269" id="Path" stroke="#FFFFFF"></line>
            <line x1="608.074884" y1="110.077985" x2="614.539538" y2="107.188881" id="Path" stroke="#FFFFFF"></line>
            <line x1="637.83341" y1="112.152407" x2="643.807746" y2="115.9618" id="Path" stroke="#FFFFFF"></line>
            <line x1="602.047746" y1="140.545586" x2="607.916474" y2="144.520933" id="Path" stroke="#FFFFFF"></line>
            <line x1="631.044393" y1="149.001685" x2="637.946561" y2="147.417581" id="Path" stroke="#FFFFFF"></line>
            <line x1="598.871994" y1="148.164373" x2="638.135145" y2="155.353188" id="Path" stroke="#FFFFFF"></line>
            <path d="M618.149482,121.194656 L628.834135,121.194656 C630.551741,121.194656 631.944135,122.58705 631.944135,124.304656 L631.944135,133.669222 C631.944135,135.386828 630.551741,136.779222 628.834135,136.779222 L618.149482,136.779222 C616.431876,136.779222 615.039482,135.386828 615.039482,133.669222 L615.039482,124.304656 C615.039482,122.58705 616.431876,121.194656 618.149482,121.194656 Z" id="Rectangle" fill="#FFFFFF" fill-rule="nonzero" transform="translate(623.491808, 128.986939) rotate(100.380000) translate(-623.491808, -128.986939) "></path>
            <path d="M709.698931,37.397783 C707.984554,34.7721058 708.020278,31.3723467 709.789451,28.7832743 L709.857341,28.6852107 L704.576994,25.1473783 L699.296647,21.6170893 L699.236301,21.7151529 C697.511347,24.3330832 694.37973,25.6547923 691.300694,25.0644015 C682.429711,23.4124072 677.277601,31.0990835 677.277601,31.0990835 L655.628179,63.3770893 C646.221618,77.4001818 663.043295,87.0405864 663.043295,87.0405864 C663.043295,87.0405864 678.341214,98.9439968 687.747775,84.9209043 L709.397197,52.6428986 C709.397197,52.6428986 714.57948,44.971309 709.698931,37.397783 Z" id="Path" fill="#D9F0F4" fill-rule="nonzero"></path>
            <path d="M705.62552,24.2044593 C705.62552,24.2044593 678.967312,62.2455864 661.828815,71.7879275" id="Path" stroke="#FFFFFF" stroke-width="2" fill="#D9F0F4" fill-rule="nonzero" stroke-linecap="round"></path>
            <path d="M701.852101,16.602506 L711.861523,16.602506 C713.634357,16.602506 715.071523,18.039672 715.071523,19.812506 L715.071523,23.8174193 C715.071523,25.5902534 713.634357,27.0274193 711.861523,27.0274193 L701.852101,27.0274193 C700.079267,27.0274193 698.642101,25.5902534 698.642101,23.8174193 L698.642101,19.812506 C698.642101,18.039672 700.079267,16.602506 701.852101,16.602506 Z" id="Rectangle" fill="#CEE7EA" fill-rule="nonzero" transform="translate(706.856812, 21.814963) rotate(33.850000) translate(-706.856812, -21.814963) "></path>
            <path d="M705.40287,15.8359133 L713.722956,15.8359133 C714.672886,15.8359133 715.442956,16.6059835 715.442956,17.5559133 L715.442956,18.0082832 C715.442956,18.958213 714.672886,19.7282832 713.722956,19.7282832 L705.40287,19.7282832 C704.45294,19.7282832 703.68287,18.958213 703.68287,18.0082832 L703.68287,17.5559133 C703.68287,16.6059835 704.45294,15.8359133 705.40287,15.8359133 Z" id="Rectangle" fill="#CEE7EA" fill-rule="nonzero" transform="translate(709.562913, 17.782098) rotate(33.850000) translate(-709.562913, -17.782098) "></path>
            <polygon id="Rectangle" fill="#CEE7EA" fill-rule="nonzero" transform="translate(712.549137, 13.211796) rotate(33.850000) translate(-712.549137, -13.211796) " points="709.678892 9.16855866 715.419383 9.16855866 715.419383 17.2550326 709.678892 17.2550326"></polygon>
            <path d="M702.298902,0.344834983 C702.390702,0.0967861746 702.651861,-0.0450777791 702.909913,0.0129274689 C704.494017,0.359921689 710.068555,1.8384188 717.046156,6.51529741 C721.798468,9.70613556 722.68104,12.2708754 722.575434,13.8851529 C722.544482,14.3487128 722.268033,14.760343 721.850637,14.9643686 C721.433242,15.1683942 720.938613,15.1336714 720.553815,14.8733321 L701.951908,2.39662689 C701.741505,2.2575218 701.656675,1.99046505 701.748237,1.75544192 L702.298902,0.344834983 Z" id="Path" fill="#CEE7EA" fill-rule="nonzero"></path>
        </g>
    </g>
</svg>